<?xml version="1.0" encoding="UTF-8"?>
<!DOCTYPE svg  PUBLIC '-//W3C//DTD SVG 1.1//EN'  'http://www.w3.org/Graphics/SVG/1.1/DTD/svg11.dtd'>
<svg enable-background="new 0 0 280 400" version="1.1" viewBox="0 0 280 400" xml:space="preserve" xmlns="http://www.w3.org/2000/svg">
<g opacity=".5">
	<g fill="none" stroke="#fff" stroke-linecap="round" stroke-linejoin="round" stroke-miterlimit="10" stroke-width="4">
		<path d="m161.4 27.6c0-11.7-9.6-21.4-21.4-21.4s-21.4 9.6-21.4 21.4h-55.2v42.9h153.8v-42.9h-55.8z"/>
			<circle cx="140" cy="27.8" r="10.1"/>
		<path d="m63.4 46.1h-37.7c-11.1 0-20 9-20 20v307.6c0 11.1 9 20 20 20h228.6c11.1 0 20-9 20-20v-307.5c0-11.1-9-20-20-20h-37.1"/>
	</g>
		<g fill="none" stroke="#fff" stroke-linecap="round" stroke-linejoin="round" stroke-miterlimit="10" stroke-width="4">
			<path d="m71.7 120.2c-2.9-1.3-6.2-1.9-9.6-1.9-13.5 0-24.5 11-24.5 24.5s11 24.5 24.5 24.5 24.5-11 24.5-24.5c0-1.4-0.1-2.7-0.3-4"/>
				<polyline points="53.9 139.9 61.7 147.7 89.2 120.2"/>
		</g>
		<g fill="none" stroke="#fff" stroke-linecap="round" stroke-linejoin="round" stroke-miterlimit="10" stroke-width="4">
			<path d="m71.7 209.6c-2.9-1.3-6.2-1.9-9.6-1.9-13.5 0-24.5 11-24.5 24.5s11 24.5 24.5 24.5 24.5-11 24.5-24.5c0-1.4-0.1-2.7-0.3-4"/>
				<polyline points="53.9 229.3 61.7 237 89.2 209.5"/>
		</g>
		<g fill="none" stroke="#fff" stroke-linecap="round" stroke-linejoin="round" stroke-miterlimit="10" stroke-width="4">
			<path d="m71.7 298.9c-2.9-1.3-6.2-1.9-9.6-1.9-13.5 0-24.5 11-24.5 24.5s11 24.5 24.5 24.5 24.5-11 24.5-24.5c0-1.4-0.1-2.7-0.3-4"/>
				<polyline points="53.9 318.6 61.7 326.4 89.2 298.9"/>
		</g>
	<g fill="#fff">
		<path d="m246.2 138.4h-134.5c-2.4 0-4.4-2-4.4-4.4v-1c0-2.4 2-4.4 4.4-4.4h134.5c2.4 0 4.4 2 4.4 4.4v1c-0.1 2.4-2 4.4-4.4 4.4z"/>
		<path d="m198.4 156.9h-86.7c-2.4 0-4.4-2-4.4-4.4v-1c0-2.4 2-4.4 4.4-4.4h86.7c2.4 0 4.4 2 4.4 4.4v1c-0.1 2.4-2 4.4-4.4 4.4z"/>
	</g>
	<g fill="#fff">
		<path d="m235.8 317.1h-124.1c-2.4 0-4.4-2-4.4-4.4v-1c0-2.4 2-4.4 4.4-4.4h124.1c2.4 0 4.4 2 4.4 4.4v1c0 2.5-1.9 4.4-4.4 4.4z"/>
		<path d="m208.7 335.6h-97c-2.4 0-4.4-2-4.4-4.4v-1c0-2.4 2-4.4 4.4-4.4h97c2.4 0 4.4 2 4.4 4.4v1c0 2.5-2 4.4-4.4 4.4z"/>
	</g>
	<g fill="#fff">
		<path d="m225.5 227.7h-113.8c-2.4 0-4.4-2-4.4-4.4v-1c0-2.4 2-4.4 4.4-4.4h113.8c2.4 0 4.4 2 4.4 4.4v1c0 2.5-2 4.4-4.4 4.4z"/>
		<path d="m167.4 246.2h-55.7c-2.4 0-4.4-2-4.4-4.4v-1c0-2.4 2-4.4 4.4-4.4h55.7c2.4 0 4.4 2 4.4 4.4v1c0 2.5-2 4.4-4.4 4.4z"/>
	</g>
</g>
</svg>
