<?xml version="1.0" encoding="UTF-8"?>
<!DOCTYPE svg  PUBLIC '-//W3C//DTD SVG 1.1//EN'  'http://www.w3.org/Graphics/SVG/1.1/DTD/svg11.dtd'>
<svg enable-background="new 0 0 320 210" version="1.1" viewBox="0 0 320 210" xml:space="preserve" xmlns="http://www.w3.org/2000/svg">
				<path d="m70.4 83.1c-21.4 0-38.8-17.4-38.8-38.8s17.4-38.8 38.8-38.8c5.3 0 10.4 1 15.2 3.1 1 0.4 1.5 1.6 1.1 2.6s-1.6 1.5-2.6 1.1c-4.3-1.8-8.9-2.8-13.6-2.8-19.2 0-34.8 15.6-34.8 34.8s15.6 34.8 34.8 34.8 34.8-15.6 34.8-34.8c0-1.9-0.2-3.8-0.5-5.7-0.2-1.1 0.6-2.1 1.6-2.3 1.1-0.2 2.1 0.6 2.3 1.6 0.3 2.1 0.5 4.3 0.5 6.4 0 21.4-17.4 38.8-38.8 38.8z" fill="#fff"/>
				<path d="m69.8 53.7c-0.5 0-1-0.2-1.4-0.6l-11.7-11.7c-0.8-0.8-0.8-2 0-2.8s2-0.8 2.8 0l10.3 10.3 39.9-39.9c0.8-0.8 2-0.8 2.8 0s0.8 2 0 2.8l-41.3 41.3c-0.4 0.4-0.9 0.6-1.4 0.6z" fill="#fff"/>
				<path d="m147.1 23.3h-13.5v-3.2h30.5v3.2h-13.5v44h-3.4v-44z" fill="#fff"/>
				<path d="m184 31.4c10.3 0 17.9 7.9 17.9 18.3 0 10.5-7.7 18.4-18 18.4s-17.9-7.7-17.9-18.4c0-10.5 7.7-18.3 18-18.3zm0 33.5c8.5 0 14.5-6.5 14.5-15.2 0-8.5-5.9-15.1-14.5-15.1-8.5 0-14.4 6.6-14.4 15.1-0.1 8.8 5.9 15.2 14.4 15.2z" fill="#fff"/>
				<path d="m210.1 20.1h8.3c16.4 0 25.4 8.8 25.4 23.6 0 15.9-9.5 23.6-25.4 23.6h-8.3v-47.2zm9.8 44c12.5 0 20.5-7 20.5-20.4 0-12.7-7.9-20.4-20.5-20.4h-6.3v40.8h6.3z" fill="#fff"/>
				<path d="m267.2 31.4c10.3 0 17.9 7.9 17.9 18.3 0 10.5-7.7 18.4-18 18.4s-17.9-7.7-17.9-18.4c0-10.5 7.7-18.3 18-18.3zm0 33.5c8.5 0 14.5-6.5 14.5-15.2 0-8.5-5.9-15.1-14.5-15.1-8.5 0-14.4 6.6-14.4 15.1-0.1 8.8 5.9 15.2 14.4 15.2z" fill="#fff"/>
			<path d="m58 132.4l-5.2-8.8h1.4l4.4 7.6 4.5-7.6h1.4l-5.2 8.8v8h-1.3v-8z" fill="#fff"/>
			<path d="m71 127.6c3.6 0 5.9 2.7 5.9 6.3v0.5h-10.7c0 3.3 2.1 5.2 5.1 5.2 2.3 0 3.6-1.1 4.3-2.1l0.8 0.6c-0.8 1.3-2.4 2.7-5.1 2.7-3.7 0-6.4-2.6-6.4-6.5 0-4.2 2.9-6.7 6.1-6.7zm4.6 5.7c-0.1-3.1-2.3-4.6-4.6-4.6s-4.4 1.5-4.7 4.6h9.3z" fill="#fff"/>
			<path d="m79.6 125.3h1.2v2.6h2.9v1.1h-2.9v7c0 2.7 0.6 3.4 2.5 3.4h0.6v1.1h-1c-2 0-3.2-1.2-3.2-3.8v-7.7h-1.7v-1.1h1.5v-2.6z" fill="#fff"/>
			<path d="m96.4 132.5c1.7 0 3 0.7 3.6 1.3v-1.8c0-2.1-1.4-3.2-3.4-3.2-1.7 0-3 0.6-3.9 1.2l-0.5-0.9c0.7-0.4 2.3-1.3 4.4-1.3 3.1 0 4.6 1.8 4.6 4.4v8.4h-1l-0.2-1.2c-0.7 0.8-1.8 1.5-3.6 1.5-2.8 0-4.8-1.8-4.8-4.1 0-2.5 2.1-4.3 4.8-4.3zm0.1 7.1c2.1 0 3.6-1.3 3.6-3 0-1.8-1.4-3-3.6-3s-3.6 1.3-3.6 3 1.4 3 3.6 3z" fill="#fff"/>
			<path d="m114.2 132.3v8.1h-1.2v-8c0-2.3-1.4-3.7-3.4-3.7-2.2 0-3.8 1.6-3.8 4.1v7.6h-1.2v-12.5h1.2v2c0.6-1.3 2.1-2.3 3.9-2.3 2.6 0 4.5 1.8 4.5 4.7z" fill="#fff"/>
			<path d="m123.2 127.6c3.7 0 6.4 2.8 6.4 6.5 0 3.8-2.8 6.6-6.4 6.6-3.7 0-6.4-2.8-6.4-6.6 0-3.7 2.7-6.5 6.4-6.5zm0 12c3 0 5.2-2.3 5.2-5.4s-2.1-5.4-5.2-5.4c-3 0-5.2 2.4-5.2 5.4 0 3.1 2.1 5.4 5.2 5.4z" fill="#fff"/>
			<path d="m132.4 125.3h1.2v2.6h2.9v1.1h-2.9v7c0 2.7 0.6 3.4 2.5 3.4h0.6v1.1h-1c-2 0-3.2-1.2-3.2-3.8v-7.7h-1.5v-1.1h1.5v-2.6z" fill="#fff"/>
			<path d="m148.5 132.3v8.1h-1.2v-8c0-2.3-1.4-3.7-3.4-3.7-2.2 0-3.8 1.6-3.8 4.1v7.6h-1.2v-17.4h1.2v6.9c0.6-1.3 2.1-2.3 3.9-2.3 2.6 0 4.5 1.8 4.5 4.7z" fill="#fff"/>
			<path d="m157.1 127.6c3.6 0 5.9 2.7 5.9 6.3v0.5h-10.6c0 3.3 2.1 5.2 5.1 5.2 2.3 0 3.6-1.1 4.3-2.1l0.8 0.6c-0.8 1.3-2.4 2.7-5.1 2.7-3.7 0-6.4-2.6-6.4-6.5 0-4.2 2.8-6.7 6-6.7zm4.6 5.7c-0.1-3.1-2.3-4.6-4.6-4.6s-4.4 1.5-4.7 4.6h9.3z" fill="#fff"/>
			<path d="m170.7 128.8c-3 0-3.9 2.4-3.9 5v6.6h-1.2v-12.5h1.2v2.2c0.4-1.3 1.8-2.6 3.9-2.6v1.3z" fill="#fff"/>
			<path d="m179.7 125.3h1.2v2.6h2.9v1.1h-2.9v7c0 2.7 0.6 3.4 2.5 3.4h0.6v1.1h-1c-2 0-3.2-1.2-3.2-3.8v-7.7h-1.5v-1.1h1.5v-2.6z" fill="#fff"/>
			<path d="m191.8 127.6c3.7 0 6.4 2.8 6.4 6.5 0 3.8-2.8 6.6-6.4 6.6-3.7 0-6.4-2.8-6.4-6.6 0-3.7 2.7-6.5 6.4-6.5zm0 12c3 0 5.2-2.3 5.2-5.4s-2.1-5.4-5.2-5.4c-3 0-5.2 2.4-5.2 5.4 0 3.1 2.2 5.4 5.2 5.4z" fill="#fff"/>
			<path d="m200.1 132.6h5.9v1.2h-5.9v-1.2z" fill="#fff"/>
			<path d="m219.7 140.4h-1.2v-2.3c-0.3 0.5-1.6 2.6-4.6 2.6-3.6 0-6.1-2.7-6.1-6.5 0-3.9 2.5-6.6 6-6.6 2.8 0 4.4 1.9 4.8 2.7v-7.3h1.2v17.4zm-5.9-11.6c-2.7 0-4.7 2.3-4.7 5.5 0 3.3 2.1 5.4 4.8 5.4 2.9 0 4.7-2.5 4.7-5.4 0-3.5-2.2-5.5-4.8-5.5z" fill="#fff"/>
			<path d="m228.9 127.6c3.7 0 6.4 2.8 6.4 6.5 0 3.8-2.8 6.6-6.4 6.6-3.7 0-6.4-2.8-6.4-6.6-0.1-3.7 2.7-6.5 6.4-6.5zm-0.1 12c3 0 5.2-2.3 5.2-5.4s-2.1-5.4-5.2-5.4c-3 0-5.2 2.4-5.2 5.4 0.1 3.1 2.2 5.4 5.2 5.4z" fill="#fff"/>
			<path d="M244.3,123h1.2v17.4h-1.2V123z" fill="#fff"/>
			<path d="m249.7 123.6c0.6 0 1 0.4 1 1s-0.4 1-1 1-1-0.4-1-1 0.5-1 1-1zm-0.6 4.3h1.2v12.5h-1.2v-12.5z" fill="#fff"/>
			<path d="m254 137.5c0.5 1.1 1.4 2.2 3.2 2.2 1.4 0 2.7-0.9 2.7-2.4 0-3.4-6.5-2.3-6.5-6.4 0-2 1.6-3.2 3.7-3.2 2.3 0 3.4 1.5 3.7 2.5l-1 0.4c-0.3-0.8-1-1.8-2.8-1.8-1.3 0-2.5 0.8-2.5 2.1 0 3.2 6.5 2.1 6.5 6.4 0 2.1-1.7 3.6-3.9 3.6-2.7 0-3.7-1.6-4.2-2.9l1.1-0.5z" fill="#fff"/>
			<path d="m263.8 125.3h1.2v2.6h2.9v1.1h-2.9v7c0 2.7 0.6 3.4 2.5 3.4h0.6v1.1h-1c-2 0-3.2-1.2-3.2-3.8v-7.7h-1.5v-1.1h1.5v-2.6z" fill="#fff"/>
			<path d="M10.6,175.8l1.8-4.3L7.2,159h1.3l4.5,11l4.4-11h1.3l-6.9,16.8H10.6z" fill="#fff"/>
			<path d="m26.3 158.6c3.7 0 6.4 2.8 6.4 6.5 0 3.8-2.8 6.6-6.4 6.6-3.7 0-6.4-2.8-6.4-6.6-0.1-3.7 2.7-6.5 6.4-6.5zm-0.1 12c3 0 5.2-2.3 5.2-5.4s-2.1-5.4-5.2-5.4c-3 0-5.2 2.4-5.2 5.4 0.1 3.1 2.2 5.4 5.2 5.4z" fill="#fff"/>
			<path d="m35.2 167.1v-8.1h1.2v8c0 2.3 1.4 3.7 3.4 3.7 2.2 0 3.8-1.6 3.8-4.1v-7.6h1.2v12.5h-1.2v-2c-0.6 1.3-2.1 2.3-3.9 2.3-2.6 0-4.5-1.8-4.5-4.7z" fill="#fff"/>
			<path d="m62.6 160.6l-3.9 10.9h-1.3l-4.4-12.5h1.3l3.8 11s0-0.1 3.9-11h1.3c3.8 10.9 3.9 11 3.9 11l3.8-11h1.3l-4.5 12.5h-1.3l-3.9-10.9z" fill="#fff"/>
			<path d="m79.7 158.6c3.7 0 6.4 2.8 6.4 6.5 0 3.8-2.8 6.6-6.4 6.6-3.7 0-6.4-2.8-6.4-6.6-0.1-3.7 2.7-6.5 6.4-6.5zm-0.1 12c3 0 5.2-2.3 5.2-5.4s-2.1-5.4-5.2-5.4c-3 0-5.2 2.4-5.2 5.4 0.1 3.1 2.2 5.4 5.2 5.4z" fill="#fff"/>
			<path d="m98.3 163.3v8.1h-1.2v-8c0-2.3-1.4-3.7-3.4-3.7-2.2 0-3.8 1.6-3.8 4.1v7.6h-1.2v-12.4h1.3v2c0.6-1.3 2.1-2.3 3.9-2.3 2.5-0.1 4.4 1.7 4.4 4.6z" fill="#fff"/>
			<path d="m101.3 154.4c0.6 0 1.1 0.5 1.1 1.1 0 1.4-0.7 2.4-1.4 3.1l-0.6-0.6c0.3-0.3 0.9-1 1-1.6-0.5 0-0.9-0.5-0.9-1-0.2-0.6 0.2-1 0.8-1z" fill="#fff"/>
			<path d="m105.1 156.4h1.2v2.6h2.9v1.1h-2.9v7c0 2.7 0.6 3.4 2.5 3.4h0.6v1.1h-1c-2 0-3.2-1.2-3.2-3.8v-7.8h-1.5v-1h1.5v-2.6z" fill="#fff"/>
			<path d="m123.2 158.6c3.6 0 5.9 2.7 5.9 6.3v0.5h-10.6c0 3.3 2.1 5.2 5.1 5.2 2.3 0 3.6-1.1 4.3-2.1l0.8 0.6c-0.8 1.3-2.4 2.7-5.1 2.7-3.7 0-6.4-2.6-6.4-6.5 0-4.2 2.8-6.7 6-6.7zm4.6 5.7c-0.1-3.1-2.3-4.6-4.6-4.6s-4.4 1.5-4.7 4.6h9.3z" fill="#fff"/>
			<path d="m135.1 171.4l-5-12.5h1.3l4.3 11.1 4.3-11.1h1.3l-5 12.5h-1.2z" fill="#fff"/>
			<path d="m148.5 158.6c3.6 0 5.9 2.7 5.9 6.3v0.5h-10.6c0 3.3 2.1 5.2 5.1 5.2 2.3 0 3.6-1.1 4.3-2.1l0.8 0.6c-0.8 1.3-2.4 2.7-5.1 2.7-3.7 0-6.4-2.6-6.4-6.5-0.1-4.2 2.8-6.7 6-6.7zm4.6 5.7c-0.1-3.1-2.3-4.6-4.6-4.6s-4.4 1.5-4.7 4.6h9.3z" fill="#fff"/>
			<path d="m166.6 163.3v8.1h-1.2v-8c0-2.3-1.4-3.7-3.4-3.7-2.2 0-3.8 1.6-3.8 4.1v7.6h-1.2v-12.4h1.2v2c0.6-1.3 2.1-2.3 3.9-2.3 2.6-0.1 4.5 1.7 4.5 4.6z" fill="#fff"/>
			<path d="m176.3 167.1v-8.1h1.2v8c0 2.3 1.4 3.7 3.4 3.7 2.2 0 3.8-1.6 3.8-4.1v-7.6h1.2v12.5h-1.2v-2c-0.6 1.3-2.1 2.3-3.9 2.3-2.6 0-4.5-1.8-4.5-4.7z" fill="#fff"/>
			<path d="m189.4 168.5c0.5 1.1 1.4 2.2 3.2 2.2 1.4 0 2.7-0.9 2.7-2.4 0-3.4-6.5-2.3-6.5-6.4 0-2 1.6-3.2 3.7-3.2 2.3 0 3.4 1.5 3.7 2.5l-1 0.4c-0.3-0.8-1-1.8-2.8-1.8-1.3 0-2.5 0.8-2.5 2.1 0 3.2 6.5 2.1 6.5 6.4 0 2.1-1.7 3.6-3.9 3.6-2.7 0-3.7-1.6-4.2-2.9l1.1-0.5z" fill="#fff"/>
			<path d="m204.3 158.6c3.6 0 5.9 2.7 5.9 6.3v0.5h-10.6c0 3.3 2.1 5.2 5.1 5.2 2.3 0 3.6-1.1 4.3-2.1l0.8 0.6c-0.8 1.3-2.4 2.7-5.1 2.7-3.7 0-6.4-2.6-6.4-6.5 0-4.2 2.8-6.7 6-6.7zm4.6 5.7c-0.1-3.1-2.3-4.6-4.6-4.6s-4.4 1.5-4.7 4.6h9.3z" fill="#fff"/>
			<path d="m213.3 169.7c0.6 0 1.1 0.5 1.1 1.1 0 1.4-0.7 2.4-1.4 3.1l-0.7-0.6c0.3-0.3 0.9-1 1-1.6-0.5 0-0.9-0.5-0.9-1s0.4-1 0.9-1z" fill="#fff"/>
			<path d="m223.9 154h1.2v7.3c0.4-0.8 1.9-2.7 4.8-2.7 3.5 0 6 2.7 6 6.6 0 3.8-2.5 6.5-6.1 6.5-3 0-4.4-2.1-4.6-2.6v2.3h-1.2v-17.4zm5.9 16.6c2.7 0 4.8-2.1 4.8-5.4 0-3.2-2-5.5-4.7-5.5-2.6 0-4.8 2-4.8 5.5-0.1 3 1.8 5.4 4.7 5.4z" fill="#fff"/>
			<path d="m238.4 167.1v-8.1h1.2v8c0 2.3 1.4 3.7 3.4 3.7 2.2 0 3.8-1.6 3.8-4.1v-7.6h1.2v12.5h-1.2v-2c-0.6 1.3-2.1 2.3-3.9 2.3-2.6 0-4.5-1.8-4.5-4.7z" fill="#fff"/>
			<path d="m251.5 156.4h1.2v2.6h2.9v1.1h-2.9v7c0 2.7 0.6 3.4 2.5 3.4h0.6v1.1h-1c-2 0-3.2-1.2-3.2-3.8v-7.8h-1.6v-1h1.5v-2.6z" fill="#fff"/>
			<path d="m274 163.3v8.1h-1.2v-8c0-2.3-1.4-3.7-3.4-3.7-2.2 0-3.8 1.6-3.8 4.1v7.6h-1.2v-17.4h1.2v6.9c0.6-1.3 2.1-2.3 3.9-2.3 2.6 0 4.5 1.8 4.5 4.7z" fill="#fff"/>
			<path d="m282.6 158.6c3.6 0 5.9 2.7 5.9 6.3v0.5h-10.6c0 3.3 2.1 5.2 5.1 5.2 2.3 0 3.6-1.1 4.3-2.1l0.8 0.6c-0.8 1.3-2.4 2.7-5.1 2.7-3.7 0-6.4-2.6-6.4-6.5 0-4.2 2.9-6.7 6-6.7zm4.7 5.7c-0.1-3.1-2.3-4.6-4.6-4.6s-4.4 1.5-4.7 4.6h9.3z" fill="#fff"/>
			<path d="M291.2,154h1.2v17.4h-1.2V154z" fill="#fff"/>
			<path d="M296,154h1.2v17.4H296V154z" fill="#fff"/>
			<path d="m301.4 169.7c0.6 0 1 0.5 1 1s-0.5 1-1 1-1-0.5-1-1 0.4-1 1-1zm5.2 0c0.6 0 1 0.5 1 1s-0.5 1-1 1-1-0.5-1-1 0.4-1 1-1zm5.2 0c0.6 0 1 0.5 1 1s-0.5 1-1 1-1-0.5-1-1 0.4-1 1-1z" fill="#fff"/>
			<path d="M108.7,185h3.3v17.4h-3.3V185z" fill="#fff"/>
			<path d="m120.7 189.5c3.9 0 6.8 2.8 6.8 6.6s-2.8 6.6-6.8 6.6c-3.9 0-6.8-2.8-6.8-6.6 0-3.7 2.9-6.6 6.8-6.6zm0 10.3c2 0 3.5-1.5 3.5-3.6s-1.5-3.7-3.5-3.7-3.4 1.5-3.4 3.7c-0.1 2.1 1.4 3.6 3.4 3.6z" fill="#fff"/>
			<path d="m135.4 189.5c3.9 0 6.8 2.8 6.8 6.6s-2.8 6.6-6.8 6.6c-3.9 0-6.8-2.8-6.8-6.6 0.1-3.7 3-6.6 6.8-6.6zm0 10.3c2 0 3.5-1.5 3.5-3.6s-1.5-3.7-3.5-3.7-3.4 1.5-3.4 3.7c0 2.1 1.5 3.6 3.4 3.6z" fill="#fff"/>
			<path d="M144.1,185h3.3v10.1l4-5.3h3.7l-4.4,5.7l4.8,6.9h-3.9l-4.2-6.5v6.5h-3.3V185z" fill="#fff"/>
			<path d="m156.1 200.4l2-1.7c0.6 0.7 1.5 1.4 2.9 1.4 0.9 0 1.5-0.4 1.5-1.1 0-1.9-5.9-1.2-5.9-5.7 0-2.3 2-3.7 4.6-3.7 2.4 0 3.7 1.3 4.3 2.2l-2.2 1.6c-0.4-0.5-1.1-1.2-2.3-1.2-0.8 0-1.3 0.4-1.3 1 0 2 6 1 6 5.5 0 2.5-2.1 4-4.8 4-2.6 0.1-4.1-1.2-4.8-2.3z" fill="#fff"/>
			<path d="m174 192.6h-1.3v-2.7h1.3v-0.5c0-3.3 2.2-4.4 4.6-4.4h1.1v2.8h-0.6c-1.2 0-1.8 0.5-1.8 1.6v0.4h2.2v2.7h-2.2v9.9h-3.3v-9.8z" fill="#fff"/>
			<path d="m181.1 197.1v-7.3h3.3v7.7c0 1.4 1 2.3 2.1 2.3 1.4 0 2.2-1 2.2-2.4v-7.6h3.3v12.6h-3.3v-1.4c-0.5 0.9-1.7 1.8-3.4 1.8-3.4 0-4.2-3-4.2-5.7z" fill="#fff"/>
			<path d="m205.6 195.2v7.3h-3.3v-7.7c0-1.4-1-2.3-2.1-2.3-1.4 0-2.2 1-2.2 2.4v7.6h-3.3v-12.6h3.3v1.5c0.5-0.9 1.7-1.8 3.4-1.8 3.4-0.1 4.2 2.9 4.2 5.6z" fill="#fff"/>
			<path d="m208.3 200.7c0-1.1 0.9-2.1 2-2.1 1.2 0 2 0.9 2 2.1 0 1.1-0.9 2-2 2-1.2 0.1-2-0.8-2-2zm0.2-15.1h3.5l-0.3 12.1h-3l-0.2-12.1z" fill="#fff"/>
</svg>
